<svg width="1834" height="621" viewBox="0 0 1834 621" fill="none" xmlns="http://www.w3.org/2000/svg">
<path opacity="0.45" d="M33.9453 620.156C3.35938 620.156 -20.3711 611.719 -37.2461 594.844C-53.6992 578.812 -61.9258 556.77 -61.9258 528.715C-61.9258 517.746 -60.1328 506.988 -56.5469 496.441C-52.9609 486.105 -47.8984 476.93 -41.3594 468.914C-34.3984 460.477 -26.0664 453.938 -16.3633 449.297C-6.44922 444.445 4.73047 442.02 17.1758 442.02C25.8242 442.02 33.418 442.441 39.957 443.285C46.707 443.918 52.9297 445.5 58.625 448.031C73.1797 454.57 80.457 467.016 80.457 485.367C80.457 492.961 79.1914 501.609 76.6602 511.312C68.8555 504.773 62 500.238 56.0938 497.707C50.8203 495.598 44.7031 494.543 37.7422 494.543C23.3984 494.543 12.1133 499.5 3.88672 509.414C0.0898438 513.633 -2.75781 518.59 -4.65625 524.285C-6.55469 530.191 -7.50391 536.203 -7.50391 542.32C-7.50391 557.719 -2.44141 569.531 7.68359 577.758C11.6914 581.133 16.2266 583.664 21.2891 585.352C26.3516 587.039 31.4141 587.883 36.4766 587.883C44.0703 587.883 50.7148 586.828 56.4102 584.719C62.3164 582.609 67.6953 578.812 72.5469 573.328C82.4609 561.727 91.0039 540 98.1758 508.148L199.742 45.2461C170.633 57.2695 148.062 75.4102 132.031 99.668C116.211 123.715 108.301 152.93 108.301 187.312C108.301 201.234 109.883 211.992 113.047 219.586C113.891 222.328 114.945 224.754 116.211 226.863C117.055 228.34 117.477 229.816 117.477 231.293C94.0625 231.293 76.9766 226.652 66.2188 217.371C54.1953 207.246 48.1836 190.898 48.1836 168.328C48.1836 154.195 51.2422 140.273 57.3594 126.562C63.4766 112.641 72.125 99.2461 83.3047 86.3789C93.8516 74.1445 106.402 62.7539 120.957 52.207C135.723 41.4492 151.648 32.168 168.734 24.3633C204.594 8.12109 240.242 0 275.68 0H301.625L204.488 460.055C199.004 485.789 191.938 508.359 183.289 527.766C174.852 547.383 164.199 563.836 151.332 577.125C137.621 591.258 121.168 601.91 101.973 609.082C82.7773 616.465 60.1016 620.156 33.9453 620.156ZM352.25 489.797C327.57 489.797 307.637 482.098 292.449 466.699C274.73 448.559 265.871 421.559 265.871 385.699C265.871 370.512 267.453 354.48 270.617 337.605C273.57 320.73 278 304.066 283.906 287.613C297.406 250.488 315.863 220.535 339.277 197.754C366.277 171.809 397.391 158.836 432.617 158.836C450.125 158.836 463.203 161.895 471.852 168.012C480.711 173.918 485.141 181.828 485.141 191.742V196.488L492.102 162H585.441L538.93 382.219C537.031 388.547 536.082 395.508 536.082 403.102C536.082 421.664 544.941 430.945 562.66 430.945C574.473 430.945 585.23 424.934 594.934 412.91C603.16 402.785 609.91 388.441 615.184 369.879H642.395C630.793 402.785 616.766 428.836 600.312 448.031C586.391 463.852 570.676 475.242 553.168 482.203C540.301 487.266 526.695 489.797 512.352 489.797C494 489.797 479.34 484.84 468.371 474.926C457.613 464.801 451.074 449.93 448.754 430.312C436.52 447.609 423.652 461.109 410.152 470.812C392.855 483.469 373.555 489.797 352.25 489.797ZM394.332 427.148C399.184 427.148 404.246 425.883 409.52 423.352C415.004 420.82 420.277 417.234 425.34 412.594C436.73 401.625 444.324 387.387 448.121 369.879L479.129 223.699C479.129 221.59 478.602 219.164 477.547 216.422C476.703 213.469 475.438 210.727 473.75 208.195C468.688 202.078 461.621 199.02 452.551 199.02C443.902 199.02 435.465 201.867 427.238 207.562C419.223 213.258 411.629 221.168 404.457 231.293C391.801 249.645 381.359 273.586 373.133 303.117C369.336 316.195 366.488 329.168 364.59 342.035C362.691 354.691 361.742 366.188 361.742 376.523C361.742 398.039 365.75 412.594 373.766 420.188C376.508 423.141 379.566 425.039 382.941 425.883C386.316 426.727 390.113 427.148 394.332 427.148ZM689.223 489.797C664.121 489.797 644.609 483.469 630.688 470.812C616.766 457.945 609.805 438.855 609.805 413.543C609.805 402.996 610.859 392.555 612.969 382.219L659.48 162H752.82L706.309 382.219C703.988 392.555 702.828 400.359 702.828 405.633C702.828 412.383 704.621 417.656 708.207 421.453C711.793 425.25 717.383 427.148 724.977 427.148C735.102 427.148 745.016 423.562 754.719 416.391C764.422 409.219 773.598 399.305 782.246 386.648C790.262 375.047 797.645 361.547 804.395 346.148C811.355 330.75 817.262 314.824 822.113 298.371C826.754 282.34 830.34 266.73 832.871 251.543C835.613 236.145 836.984 222.539 836.984 210.727C836.141 212.625 833.082 214.207 827.809 215.473C824.434 216.527 820.637 217.055 816.418 217.055C809.035 217.055 803.234 213.469 799.016 206.297C795.008 200.18 793.004 192.797 793.004 184.148C793.004 173.602 796.379 165.164 803.129 158.836C809.879 152.297 819.898 149.027 833.188 149.027C847.531 149.027 858.184 154.828 865.145 166.43C871.051 176.133 874.004 189.105 874.004 205.348C874.004 223.277 872.422 242.684 869.258 263.566C866.305 284.449 861.77 305.016 855.652 325.266C840.887 373.359 820.953 411.223 795.852 438.855C765.477 472.816 729.934 489.797 689.223 489.797ZM976.52 489.797C944.668 489.797 920.094 481.781 902.797 465.75C884.445 448.664 875.27 422.402 875.27 386.965C875.27 373.676 876.641 358.91 879.383 342.668C881.914 326.426 885.816 310.184 891.09 293.941C896.996 275.801 904.484 258.609 913.555 242.367C922.836 226.125 933.594 211.781 945.828 199.336C974.094 170.648 1008.9 156.305 1050.24 156.305C1076.61 156.305 1095.8 162.633 1107.83 175.289C1117.11 185.203 1121.75 199.547 1121.75 218.32C1121.75 236.672 1117.74 253.969 1109.73 270.211C1101.71 286.242 1090.64 300.48 1076.5 312.926C1062.37 325.16 1046.34 334.969 1028.41 342.352C1010.48 349.523 991.918 353.742 972.723 355.008C971.668 365.977 971.141 374.625 971.141 380.953C971.141 402.047 975.148 416.602 983.164 424.617C990.125 431.789 1001.73 435.375 1017.97 435.375C1041.38 435.375 1062.79 429.047 1082.2 416.391C1090.43 411.117 1098.34 404.895 1105.93 397.723C1113.52 390.34 1122.38 381.059 1132.51 369.879H1154.66C1134.2 404.473 1110.68 432 1084.1 452.461C1051.4 477.352 1015.54 489.797 976.52 489.797ZM977.785 324C989.809 323.156 1001.52 319.676 1012.91 313.559C1024.3 307.441 1034.42 299.426 1043.28 289.512C1052.14 279.387 1059.1 268.102 1064.16 255.656C1069.23 243 1071.76 230.133 1071.76 217.055C1071.76 208.406 1070.49 201.867 1067.96 197.438C1065.64 192.797 1061.53 190.477 1055.62 190.477C1047.82 190.477 1039.91 194.273 1031.89 201.867C1024.09 209.461 1016.49 219.902 1009.11 233.191C1002.36 245.637 996.242 259.77 990.758 275.59C985.273 291.41 980.949 307.547 977.785 324ZM1196.74 489.797C1176.07 489.797 1159.72 483.68 1147.7 471.445C1134.2 457.945 1127.45 438.223 1127.45 412.277C1127.45 400.043 1129.13 385.91 1132.51 369.879L1201.8 45.2461L1297.67 32.2734L1223.32 382.219C1221.63 387.703 1220.79 394.664 1220.79 403.102C1220.79 411.961 1222.79 418.184 1226.8 421.77C1231.02 425.355 1237.77 427.148 1247.05 427.148C1253.38 427.148 1259.49 425.777 1265.4 423.035C1271.52 420.082 1277.11 416.074 1282.17 411.012C1292.5 400.676 1300.31 386.965 1305.58 369.879H1332.79C1321.19 402.574 1306.64 428.625 1289.13 448.031C1274.36 463.852 1257.7 475.242 1239.14 482.203C1225.64 487.266 1211.5 489.797 1196.74 489.797ZM1414.11 126.879C1407.15 126.879 1400.5 125.613 1394.18 123.082C1387.85 120.34 1382.36 116.648 1377.72 112.008C1373.08 107.578 1369.39 102.199 1366.65 95.8711C1364.12 89.543 1362.85 82.8984 1362.85 75.9375C1362.85 68.9766 1364.12 62.332 1366.65 56.0039C1369.39 49.6758 1373.08 44.0859 1377.72 39.2344C1382.36 34.3828 1387.85 30.6914 1394.18 28.1602C1400.5 25.418 1407.15 24.0469 1414.11 24.0469C1421.07 24.0469 1427.71 25.418 1434.04 28.1602C1440.37 30.6914 1445.96 34.3828 1450.81 39.2344C1455.66 44.0859 1459.36 49.6758 1461.89 56.0039C1464.63 62.332 1466 68.9766 1466 75.9375C1466 82.8984 1464.63 89.543 1461.89 95.8711C1459.36 102.199 1455.66 107.578 1450.81 112.008C1445.96 116.648 1440.37 120.34 1434.04 123.082C1427.71 125.613 1421.07 126.879 1414.11 126.879ZM1370.13 489.797C1349.46 489.797 1333.11 483.68 1321.09 471.445C1307.59 457.945 1300.84 438.223 1300.84 412.277C1300.84 400.043 1302.52 385.91 1305.9 369.879L1349.88 162H1443.22L1396.71 382.219C1395.02 387.703 1394.18 394.664 1394.18 403.102C1394.18 411.961 1396.18 418.184 1400.19 421.77C1404.41 425.355 1411.16 427.148 1420.44 427.148C1426.77 427.148 1432.88 425.777 1438.79 423.035C1444.91 420.082 1450.5 416.074 1455.56 411.012C1465.89 400.676 1473.7 386.965 1478.97 369.879H1506.18C1494.58 402.574 1480.03 428.625 1462.52 448.031C1447.75 463.852 1431.09 475.242 1412.53 482.203C1399.03 487.266 1384.89 489.797 1370.13 489.797ZM1713.11 489.797C1686.32 489.797 1666.5 482.203 1653.63 467.016C1642.45 453.938 1636.86 437.168 1636.86 416.707C1636.86 407.004 1638.02 395.719 1640.34 382.852C1642.87 369.984 1646.56 353.426 1651.41 333.176C1656.27 312.504 1659.85 296.051 1662.17 283.816C1664.7 271.371 1665.97 260.613 1665.97 251.543C1665.97 229.395 1658.16 218.32 1642.55 218.32C1631.59 218.32 1621.46 224.121 1612.18 235.723C1604.38 245.637 1597.62 259.77 1591.93 278.121L1547.95 486H1454.61L1523.27 162H1616.61L1609.65 195.539C1622.3 181.406 1635.91 171.492 1650.46 165.797C1661.22 161.578 1672.82 159.469 1685.27 159.469C1707.21 159.469 1724.5 165.164 1737.16 176.555C1750.66 189 1757.41 207.668 1757.41 232.559C1757.41 247.535 1754.67 267.047 1749.18 291.094C1747.71 298.055 1745.28 308.496 1741.91 322.418C1735.79 345.832 1731.36 364.5 1728.62 378.422C1726.93 387.281 1726.09 394.453 1726.09 399.938C1726.09 408.586 1727.98 415.336 1731.78 420.188C1735.79 424.828 1742.54 427.148 1752.03 427.148C1764.9 427.148 1775.76 421.875 1784.62 411.328C1791.37 403.312 1798.65 389.496 1806.45 369.879H1833.66C1817.63 417.34 1797.38 450.562 1772.91 469.547C1755.62 483.047 1735.68 489.797 1713.11 489.797Z" fill="#262626"/>
</svg>
