<svg width="57" height="80" viewBox="0 0 57 80" fill="none" xmlns="http://www.w3.org/2000/svg">
<path d="M28.5 0C12.6617 0 0 13.3281 0 30C0 35.7656 1.63281 40.2188 4.46797 44.7344L25.5016 78.3281C26.1398 79.3438 27.2383 80 28.5 80C29.7617 80 30.875 79.3281 31.4984 78.3281L52.532 44.7344C55.3672 40.2188 57 35.7656 57 30C57 13.3281 44.3383 0 28.5 0ZM28.5 46.6562C19.757 46.6562 12.6617 39.1875 12.6617 29.9688C12.6617 20.75 19.757 13.2812 28.5 13.2812C37.243 13.2812 44.3383 20.75 44.3383 29.9688C44.3383 39.1875 37.243 46.6562 28.5 46.6562Z" fill="#D9542A"/>
</svg>
