<?xml version="1.0" encoding="UTF-8"?>
<svg xmlns="http://www.w3.org/2000/svg" xmlns:xlink="http://www.w3.org/1999/xlink" viewBox="0 0 24 24" width="24px" height="24px">
<g id="surface7133246">
<path style=" stroke:none;fill-rule:nonzero;fill:rgb(0%,0%,0%);fill-opacity:1;" d="M 2.640625 12 C 2.640625 6.832031 6.832031 2.640625 12 2.640625 C 17.167969 2.640625 21.359375 6.832031 21.359375 12 C 21.359375 17.167969 17.167969 21.359375 12 21.359375 C 6.832031 21.359375 2.640625 17.167969 2.640625 12 Z M 12 20.398438 C 16.640625 20.398438 20.398438 16.640625 20.398438 12 C 20.398438 7.359375 16.640625 3.601562 12 3.601562 C 7.359375 3.601562 3.601562 7.359375 3.601562 12 C 3.601562 16.640625 7.359375 20.398438 12 20.398438 Z M 12 20.398438 "/>
<path style=" stroke:none;fill-rule:nonzero;fill:rgb(0%,0%,0%);fill-opacity:1;" d="M 16.789062 9.09375 C 16.675781 8.664062 16.335938 8.324219 15.90625 8.210938 C 15.128906 8 12 8 12 8 C 12 8 8.871094 8 8.09375 8.210938 C 7.664062 8.324219 7.324219 8.664062 7.210938 9.09375 C 7 9.871094 7 12 7 12 C 7 12 7 14.128906 7.210938 14.90625 C 7.324219 15.335938 7.664062 15.675781 8.09375 15.789062 C 8.871094 16 12 16 12 16 C 12 16 15.128906 16 15.90625 15.789062 C 16.335938 15.675781 16.675781 15.335938 16.789062 14.90625 C 17 14.128906 17 12 17 12 C 17 12 17 9.871094 16.789062 9.09375 Z M 11 13.300781 L 11 10.699219 C 11 10.507812 11.207031 10.386719 11.375 10.484375 L 13.625 11.785156 C 13.792969 11.878906 13.792969 12.121094 13.625 12.214844 L 11.375 13.515625 C 11.207031 13.613281 11 13.492188 11 13.300781 Z M 11 13.300781 "/>
</g>
</svg>
