<svg width="158" height="43" viewBox="0 0 158 43" fill="none" xmlns="http://www.w3.org/2000/svg">
<path d="M6.93164 40.6953C4.94922 40.6953 3.41113 40.1484 2.31738 39.0547C1.25098 38.0156 0.717773 36.5869 0.717773 34.7686C0.717773 34.0576 0.833984 33.3604 1.06641 32.6768C1.29883 32.0068 1.62695 31.4121 2.05078 30.8926C2.50195 30.3457 3.04199 29.9219 3.6709 29.6211C4.31348 29.3066 5.03809 29.1494 5.84473 29.1494C6.40527 29.1494 6.89746 29.1768 7.32129 29.2314C7.75879 29.2725 8.16211 29.375 8.53125 29.5391C9.47461 29.9629 9.94629 30.7695 9.94629 31.959C9.94629 32.4512 9.86426 33.0117 9.7002 33.6406C9.19434 33.2168 8.75 32.9229 8.36719 32.7588C8.02539 32.6221 7.62891 32.5537 7.17773 32.5537C6.24805 32.5537 5.5166 32.875 4.9834 33.5176C4.7373 33.791 4.55273 34.1123 4.42969 34.4814C4.30664 34.8643 4.24512 35.2539 4.24512 35.6504C4.24512 36.6484 4.57324 37.4141 5.22949 37.9473C5.48926 38.166 5.7832 38.3301 6.11133 38.4395C6.43945 38.5488 6.76758 38.6035 7.0957 38.6035C7.58789 38.6035 8.01855 38.5352 8.3877 38.3984C8.77051 38.2617 9.11914 38.0156 9.43359 37.6602C10.0762 36.9082 10.6299 35.5 11.0947 33.4355L17.6777 3.43262C15.791 4.21191 14.3281 5.3877 13.2891 6.95996C12.2637 8.51855 11.751 10.4121 11.751 12.6406C11.751 13.543 11.8535 14.2402 12.0586 14.7324C12.1133 14.9102 12.1816 15.0674 12.2637 15.2041C12.3184 15.2998 12.3457 15.3955 12.3457 15.4912C10.8281 15.4912 9.7207 15.1904 9.02344 14.5889C8.24414 13.9326 7.85449 12.873 7.85449 11.4102C7.85449 10.4941 8.05273 9.5918 8.44922 8.70312C8.8457 7.80078 9.40625 6.93262 10.1309 6.09863C10.8145 5.30566 11.6279 4.56738 12.5713 3.88379C13.5283 3.18652 14.5605 2.58496 15.668 2.0791C17.9922 1.02637 20.3027 0.5 22.5996 0.5H24.2812L17.9854 30.3184C17.6299 31.9863 17.1719 33.4492 16.6113 34.707C16.0645 35.9785 15.374 37.0449 14.54 37.9062C13.6514 38.8223 12.585 39.5127 11.3408 39.9775C10.0967 40.4561 8.62695 40.6953 6.93164 40.6953ZM31.6641 36.7783C30.8984 36.7783 30.2285 36.7441 29.6543 36.6758C29.0801 36.6074 28.54 36.4434 28.0342 36.1836C26.708 35.541 26.0449 34.2559 26.0449 32.3281C26.0449 31.3984 26.1885 30.2842 26.4756 28.9854C26.7764 27.6865 27.2002 26.2852 27.7471 24.7812C28.9502 21.4727 30.4404 18.2939 32.2178 15.2451C30.8232 15.3271 29.7158 15.5391 28.8955 15.8809C28.0889 16.209 27.5557 16.7217 27.2959 17.4189C27.4189 17.4189 27.542 17.5625 27.665 17.8496C27.7881 18.1367 27.8496 18.4307 27.8496 18.7314C27.8496 19.2236 27.624 19.6201 27.1729 19.9209C26.7217 20.2217 26.1611 20.3721 25.4912 20.3721C24.7393 20.3721 24.124 20.167 23.6455 19.7568C23.1396 19.333 22.8867 18.7246 22.8867 17.9316C22.8867 17.2344 23.0986 16.5713 23.5225 15.9424C23.9463 15.2998 24.5479 14.7461 25.3271 14.2812C26.1201 13.8027 27.0361 13.4336 28.0752 13.1738C29.1279 12.9004 30.2559 12.7637 31.459 12.7637C32.0469 12.7637 32.7783 12.8047 33.6533 12.8867C36.0049 9.18164 38.3564 6.27637 40.708 4.1709C43.4424 1.72363 45.958 0.5 48.2549 0.5C49.6221 0.5 50.7295 0.698242 51.5771 1.09473L44.9941 32H38.9443L42.1641 16.7627C41.1523 16.2979 40.2021 15.9492 39.3135 15.7168C38.4385 15.4844 37.5156 15.3271 36.5449 15.2451C34.959 18.6768 33.6602 22.1836 32.6484 25.7656C31.6094 29.3613 31.0898 32.2529 31.0898 34.4404C31.0898 35.5205 31.2812 36.2998 31.6641 36.7783ZM44.9941 3.47363C43.7773 4.12988 42.499 5.36719 41.1592 7.18555C39.8467 8.99023 38.6025 11.0752 37.4268 13.4404C39.3408 13.8096 41.0498 14.2949 42.5537 14.8965L44.9941 3.47363ZM60.9902 3.30957C58.9941 4.06152 57.4492 5.23047 56.3555 6.81641C55.2754 8.38867 54.7354 10.3301 54.7354 12.6406C54.7354 13.5156 54.8311 14.2129 55.0225 14.7324C55.0771 14.9102 55.1455 15.0674 55.2275 15.2041C55.2822 15.2998 55.3096 15.3955 55.3096 15.4912C53.792 15.4912 52.6846 15.1904 51.9873 14.5889C51.208 13.9326 50.8184 12.873 50.8184 11.4102C50.8184 10.4941 51.0166 9.5918 51.4131 8.70312C51.8096 7.80078 52.3701 6.93262 53.0947 6.09863C53.7783 5.30566 54.5918 4.56738 55.5352 3.88379C56.4922 3.18652 57.5244 2.58496 58.6318 2.0791C60.9561 1.02637 63.2666 0.5 65.5635 0.5C66.1924 0.5 66.7529 0.527344 67.2451 0.582031L67.6143 26.4219L76.4531 0.705078H79.3857L67.7168 32H61.667L60.9902 3.30957ZM84.4307 32.7588C83.1182 32.7588 81.9697 32.5605 80.9854 32.1641C80.001 31.7812 79.1875 31.2344 78.5449 30.5234C77.9297 29.8535 77.4648 29.0742 77.1504 28.1855C76.8496 27.2969 76.6992 26.3535 76.6992 25.3555C76.6992 24.248 76.877 23.1201 77.2324 21.9717C77.5879 20.8096 78.1006 19.7295 78.7705 18.7314C79.4541 17.6924 80.2744 16.8037 81.2314 16.0654C82.2021 15.3271 83.2822 14.8008 84.4717 14.4863C83.5967 13.8574 82.9473 13.1055 82.5234 12.2305C82.1133 11.3555 81.9082 10.4258 81.9082 9.44141C81.9082 8.36133 82.1338 7.28809 82.585 6.22168C83.0498 5.1416 83.6924 4.1709 84.5127 3.30957C85.3604 2.40723 86.3447 1.70313 87.4658 1.19727C88.6006 0.677734 89.8174 0.417969 91.1162 0.417969C91.9502 0.417969 92.7363 0.53418 93.4746 0.766602C94.2129 0.985352 94.8486 1.31348 95.3818 1.75098C95.9424 2.20215 96.373 2.75586 96.6738 3.41211C96.9746 4.06836 97.125 4.82031 97.125 5.66797C97.125 6.2832 97.043 6.85742 96.8789 7.39062C96.7148 7.92383 96.4893 8.38867 96.2021 8.78516C95.915 9.18164 95.5801 9.48926 95.1973 9.70801C94.8145 9.92676 94.418 10.0361 94.0078 10.0361C93.2422 10.0361 92.5859 9.66016 92.0391 8.9082C92.2715 8.82617 92.5039 8.66211 92.7363 8.41602C92.9688 8.15625 93.1738 7.84863 93.3516 7.49316C93.5156 7.15137 93.6455 6.78223 93.7412 6.38574C93.8369 5.98926 93.8848 5.60645 93.8848 5.2373C93.8848 4.44434 93.6455 3.83594 93.167 3.41211C92.7705 3.07031 92.2373 2.89941 91.5674 2.89941C90.9658 2.89941 90.3984 3.06348 89.8652 3.3916C89.332 3.71973 88.874 4.1709 88.4912 4.74512C88.1084 5.30566 87.8076 5.94141 87.5889 6.65234C87.3838 7.36328 87.2812 8.08789 87.2812 8.82617C87.2812 10.1523 87.6094 11.2939 88.2656 12.251C88.9766 13.3174 90.0635 14.0488 91.5264 14.4453C90.1045 14.7598 88.792 15.4844 87.5889 16.6191C86.5088 17.6582 85.6406 18.9092 84.9844 20.3721C84.3418 21.835 84.0205 23.2021 84.0205 24.4736C84.0205 25.7451 84.3281 26.75 84.9434 27.4883C85.627 28.3086 86.6455 28.7188 87.999 28.7188C88.6689 28.7188 89.373 28.6299 90.1113 28.4521C90.8633 28.2607 91.5811 27.9873 92.2646 27.6318C93.8506 26.8252 95.0195 25.7588 95.7715 24.4326L96.7354 24.8633C95.6279 27.2832 93.9395 29.2109 91.6699 30.6465C90.5762 31.3301 89.4141 31.8496 88.1836 32.2051C86.9531 32.5742 85.7021 32.7588 84.4307 32.7588ZM119.171 42.5C118.241 42.5 117.305 42.2812 116.361 41.8438C115.418 41.4199 114.399 40.8115 113.306 40.0186C112.308 39.3213 111.316 38.5557 110.332 37.7217C108.021 35.8076 105.909 34.4541 103.995 33.6611C102.888 33.1963 101.698 32.9639 100.427 32.9639H99.9551C99.873 32.9639 99.709 32.9775 99.4629 33.0049L105.718 3.9043C103.831 4.68359 102.382 5.8457 101.37 7.39062C100.358 8.92188 99.8525 10.8086 99.8525 13.0508C99.8525 13.9121 99.9482 14.6162 100.14 15.1631C100.194 15.3408 100.263 15.498 100.345 15.6348C100.399 15.7305 100.427 15.8262 100.427 15.9219C98.9092 15.9219 97.8018 15.6143 97.1045 14.999C96.3252 14.3428 95.9355 13.29 95.9355 11.8408C95.9355 10.9248 96.1338 10.0225 96.5303 9.13379C96.9268 8.23145 97.4873 7.36328 98.2119 6.5293C98.9092 5.72266 99.7295 4.97754 100.673 4.29395C101.63 3.59668 102.655 2.99512 103.749 2.48926C106.073 1.43652 108.384 0.910156 110.681 0.910156C111.187 0.910156 111.747 0.944336 112.362 1.0127L105.902 31.1592C106.572 31.3096 107.249 31.5352 107.933 31.8359C108.63 32.1367 109.423 32.5264 110.312 33.0049L112.608 34.2354C114.386 35.2061 115.992 35.876 117.428 36.2451C118.248 36.4639 119.109 36.5732 120.012 36.5732C121.283 36.5732 122.459 36.3477 123.539 35.8965C123.293 37.9473 122.794 39.5537 122.042 40.7158C121.673 41.29 121.242 41.7275 120.75 42.0283C120.271 42.3428 119.745 42.5 119.171 42.5ZM121.632 3.47363C119.745 4.25293 118.296 5.41504 117.284 6.95996C116.272 8.50488 115.767 10.3984 115.767 12.6406C115.767 13.5156 115.862 14.2129 116.054 14.7324C116.108 14.9102 116.177 15.0674 116.259 15.2041C116.313 15.2998 116.341 15.3955 116.341 15.4912C114.823 15.4912 113.716 15.1904 113.019 14.5889C112.239 13.9326 111.85 12.873 111.85 11.4102C111.85 10.4941 112.048 9.5918 112.444 8.70312C112.841 7.80078 113.401 6.93262 114.126 6.09863C114.81 5.30566 115.623 4.56738 116.566 3.88379C117.523 3.18652 118.556 2.58496 119.663 2.0791C121.987 1.02637 124.298 0.5 126.595 0.5C127.224 0.5 127.784 0.527344 128.276 0.582031L121.591 32H115.562L121.632 3.47363ZM137.546 3.22754C135.618 3.91113 134.162 4.9707 133.178 6.40625C132.207 7.82812 131.722 9.57129 131.722 11.6357C131.722 12.5381 131.817 13.3652 132.009 14.1172C132.214 14.8555 132.494 15.457 132.85 15.9219C131.045 15.9219 129.719 15.5596 128.871 14.835C128.023 14.0967 127.6 12.9414 127.6 11.3691C127.6 9.42773 128.188 7.58887 129.363 5.85254C130.484 4.19824 132.009 2.86523 133.937 1.85352C135.919 0.841797 138.059 0.335938 140.355 0.335938C140.998 0.335938 141.559 0.383789 142.037 0.479492C142.529 0.561523 143.076 0.705078 143.678 0.910156L148.743 23.3867L153.439 0.582031H157.521L150.671 32H144.867L140.007 11.1641L135.208 32H131.229L137.546 3.22754Z" fill="#F1F0EF"/>
</svg>
